<svg width="64" height="64" viewBox="0 0 24 24" fill="none" xmlns="http://www.w3.org/2000/svg">
  <defs>
    <linearGradient id="shieldAccent" x1="0%" y1="0%" x2="100%" y2="100%">
      <stop offset="0%" stop-color="#F59E0B" />
      <stop offset="100%" stop-color="#D97706" />
    </linearGradient>
  </defs>
  <path d="M12 2L20.5 5.5V12C20.5 17.5 16.5 21.2 12 22.5C7.5 21.2 3.5 17.5 3.5 12V5.5L12 2Z" fill="#18181B" stroke="#FAFAFA" stroke-width="1.75" stroke-linejoin="round"/>
  <path d="M12 2L20.5 5.5V12C20.5 17.5 16.5 21.2 12 22.5V2Z" fill="#27272A" opacity="0.6"/>
  <path d="M12 7V17M8.5 10L12 12M15.5 10L12 12M8.5 14L12 12M15.5 14L12 12" stroke="url(#shieldAccent)" stroke-width="1.75" stroke-linecap="round" stroke-linejoin="round"/>
  <circle cx="12" cy="12" r="1.5" fill="#F59E0B"/>
</svg>
